<svg width="32" height="32" viewBox="0 0 32 32" xmlns="http://www.w3.org/2000/svg" role="img" aria-label="Kudegowo logo">
  <title>Kudegowo Logo</title>
  <path d="M16,2 L28,8 C29,8.5 29,9.5 29,10 L29,20 C29,21 28.5,21.5 28,22 L17,29.5 C16.4,30 15.6,30 15,29.5 L4,22 C3.5,21.5 3,21 3,20 L3,10 C3,9.5 3,8.5 4,8 Z"
        fill="#003366"/>
  <g fill="white">
    <rect x="9" y="8" width="4.5" height="16" rx="1"/>
    <polygon points="13.5,14.5 23,8 25,8 25.5,9.5 23.5,10.5 14.5,16.5"/>
    <polygon points="23,7 26,7 25,9.5 23,8"/>
    <polygon points="13.5,18 14.5,16.5 24.5,24.5 23,25.5"/>
  </g>
  <line x1="23" y1="7" x2="26" y2="7" stroke="#E6A500" stroke-width="1" stroke-linecap="round"/>
</svg>
