<svg width="64" height="64" viewBox="0 0 64 64" xmlns="http://www.w3.org/2000/svg" role="img" aria-label="Kudegowo logo">
  <title>Kudegowo Logo</title>
  <path d="M32,5 L55,16 C56.5,16.8 57,18 57,19.5 L57,40 C57,41.5 56.5,42.8 55,43.5 L34,58 C33,58.8 31,58.8 30,58 L9,43.5 C7.5,42.8 7,41.5 7,40 L7,19.5 C7,18 7.5,16.8 9,16 Z"
        fill="white"/>
  <g fill="#003366">
    <rect x="19" y="16" width="8" height="32" rx="1.5"/>
    <polygon points="27,29 45,16 48,16 49,18 46,20 29,32"/>
    <polygon points="45,14 51,14 49,18 45,16"/>
    <polygon points="27,35 29,32 48,48 45,50"/>
  </g>
  <line x1="45" y1="14" x2="51" y2="14" stroke="#E6A500" stroke-width="1.5" stroke-linecap="round"/>
</svg>
